<svg aria-hidden="true" style="width:0;height:0;position:absolute;overflow:hidden" xmlns="http://www.w3.org/2000/svg"><defs><symbol id="icon-heart" viewBox="0 0 32 32"><path fill="#3d5278" style="fill:var(--color1,#3d5278)" d="M21.92 4.133A7.4 7.4 0 0 0 16 7.106a7.4 7.4 0 0 0-5.92-2.973c-4.093 0-7.413 3.333-7.413 7.453 0 1.587.253 3.053.693 4.413 2.107 6.667 8.6 10.653 11.813 11.747.453.16 1.2.16 1.653 0 3.213-1.093 9.707-5.08 11.813-11.747.44-1.36.693-2.827.693-4.413 0-4.12-3.32-7.453-7.413-7.453z"/></symbol><symbol id="icon-notification" viewBox="0 0 32 32"><path fill="#3d5278" style="fill:var(--color1,#3d5278)" d="m21.338 17.811-.727-1.207c-.153-.269-.291-.778-.291-1.076v-1.84a4.298 4.298 0 0 0-2.451-3.876 2.128 2.128 0 0 0-1.876-1.084c-.793 0-1.505.429-1.884 1.105a4.311 4.311 0 0 0-2.4 3.855v1.84c0 .298-.138.807-.291 1.069l-.735 1.215c-.291.487-.356 1.025-.175 1.52.175.487.589.865 1.127 1.047 1.411.48 2.895.713 4.378.713s2.967-.233 4.378-.705c.509-.167.902-.553 1.091-1.055s.138-1.055-.145-1.52zM18.058 21.825A2.191 2.191 0 0 1 16 23.272a2.158 2.158 0 0 1-1.542-.647 2.006 2.006 0 0 1-.509-.807c.095.015.189.022.291.036.167.022.342.044.516.058.415.036.836.058 1.258.058.415 0 .829-.022 1.236-.058.153-.015.305-.022.451-.044l.356-.044z"/><path fill="none" opacity=".8" stroke="#c3d4e9" style="stroke:var(--color2,#c3d4e9)" stroke-width=".727" d="M16 .364C24.636.364 31.636 7.365 31.636 16S24.635 31.636 16 31.636C7.364 31.636.364 24.635.364 16S7.365.364 16 .364z"/><path fill="#ff4423" style="fill:var(--color3,#ff4423)" d="M30.545 5.455a4 4 0 1 1-8 0 4 4 0 0 1 8 0z"/></symbol><symbol id="icon-setting" viewBox="0 0 32 32"><path fill="#3d5278" style="fill:var(--color1,#3d5278)" d="M26.8 12.294c-2.413 0-3.4-1.707-2.2-3.8a2.529 2.529 0 0 0-.933-3.453l-2.307-1.32c-1.053-.627-2.413-.253-3.04.8l-.147.253c-1.2 2.093-3.173 2.093-4.387 0l-.147-.253a2.188 2.188 0 0 0-3.013-.8l-2.307 1.32c-1.213.693-1.627 2.253-.933 3.467 1.213 2.08.227 3.787-2.187 3.787a2.54 2.54 0 0 0-2.533 2.533v2.347a2.54 2.54 0 0 0 2.533 2.533c2.413 0 3.4 1.707 2.187 3.8a2.529 2.529 0 0 0 .933 3.453l2.307 1.32c1.053.627 2.413.253 3.04-.8l.147-.253c1.2-2.093 3.173-2.093 4.387 0l.147.253c.627 1.053 1.987 1.427 3.04.8l2.307-1.32a2.531 2.531 0 0 0 .933-3.453c-1.213-2.093-.227-3.8 2.187-3.8a2.54 2.54 0 0 0 2.533-2.533v-2.347a2.56 2.56 0 0 0-2.547-2.533zM16 20.334c-2.387 0-4.333-1.947-4.333-4.333s1.947-4.333 4.333-4.333c2.387 0 4.333 1.947 4.333 4.333S18.386 20.334 16 20.334z"/></symbol><symbol id="icon-notification1" viewBox="0 0 32 32"><path fill="#3d5278" style="fill:var(--color1,#3d5278)" d="m25.787 19.32-1.333-2.213c-.28-.493-.533-1.427-.533-1.973v-3.373c0-3.133-1.84-5.84-4.493-7.107-.693-1.227-1.973-1.987-3.44-1.987-1.453 0-2.76.787-3.453 2.027-2.6 1.293-4.4 3.973-4.4 7.067v3.373c0 .547-.253 1.48-.533 1.96l-1.347 2.227c-.533.893-.653 1.88-.32 2.787.32.893 1.08 1.587 2.067 1.92 2.587.88 5.307 1.307 8.027 1.307s5.44-.427 8.027-1.293c.933-.307 1.653-1.013 2-1.933s.253-1.933-.267-2.787zM19.773 26.68A4.018 4.018 0 0 1 16 29.333a3.956 3.956 0 0 1-2.827-1.187 3.668 3.668 0 0 1-.933-1.48c.173.027.347.04.533.067.307.04.627.08.947.107.76.067 1.533.107 2.307.107.76 0 1.52-.04 2.267-.107.28-.027.56-.04.827-.08l.653-.08z"/></symbol><symbol id="icon-search" viewBox="0 0 32 32"><path fill="none" stroke="#3d5278" style="stroke:var(--color1,#3d5278)" stroke-linejoin="round" stroke-linecap="round" stroke-width="2" d="M15.333 28C22.329 28 28 22.329 28 15.333S22.329 2.666 15.333 2.666c-6.996 0-12.667 5.671-12.667 12.667S8.337 28 15.333 28zM29.333 29.333l-2.667-2.667"/></symbol><symbol id="icon-filter" viewBox="0 0 32 32"><path fill="none" stroke="#3d5278" style="stroke:var(--color1,#3d5278)" stroke-linejoin="round" stroke-linecap="round" stroke-miterlimit="10" stroke-width="2" d="M29.333 8.667h-8M8 8.667H2.667M13.333 13.333a4.667 4.667 0 1 0 0-9.334 4.667 4.667 0 0 0 0 9.334zM29.333 23.333H24M10.667 23.333h-8M18.667 28a4.667 4.667 0 1 0 0-9.334 4.667 4.667 0 0 0 0 9.334z"/></symbol><symbol id="icon-actions-star" viewBox="0 0 36 32"><path fill="#fbad39" style="fill:var(--color1,#fbad39)" d="M16.333 1.317a1.8 1.8 0 0 1 2.78-.91 1.8 1.8 0 0 1 .652.91l3.1 9.533h10a1.817 1.817 0 0 1 1.067 3.334l-8.117 5.883 3.1 9.55a1.797 1.797 0 0 1-.649 2.033 1.801 1.801 0 0 1-2.133-.016L18 25.684l-8.117 5.9a1.797 1.797 0 0 1-2.791-.894 1.804 1.804 0 0 1 .009-1.123l3.1-9.55-8.117-5.883a1.81 1.81 0 0 1-.732-2.072A1.817 1.817 0 0 1 3.151 10.8h10l3.183-9.483z"/></symbol><symbol id="icon-empty-star" viewBox="0 0 36 32"><path fill="none" stroke="#c3d4e9" style="stroke:var(--color1,#c3d4e9)" stroke-linejoin="round" stroke-linecap="round" stroke-width="2.667" d="M16.296 2.949a1.603 1.603 0 0 1 2.472-.809c.274.202.477.485.58.809l2.756 8.474h8.889a1.613 1.613 0 0 1 1.599 1.122 1.614 1.614 0 0 1-.65 1.841l-7.215 5.23 2.756 8.489a1.599 1.599 0 0 1-2.474 1.793l-7.23-5.289-7.215 5.244a1.598 1.598 0 0 1-1.897.014 1.602 1.602 0 0 1-.577-1.807l2.756-8.489-7.215-5.23a1.612 1.612 0 0 1-.039-2.671c.289-.203.636-.305.988-.292h8.889l2.83-8.43z"/></symbol><symbol id="icon-arrow-down" viewBox="0 0 32 32"><path fill="#90a3bf" style="fill:var(--color1,#90a3bf);stroke:var(--color1,#90a3bf)" stroke="#90a3bf" d="M16.001 22.399c-.933 0-1.867-.36-2.573-1.067l-8.693-8.693c-.387-.387-.387-1.027 0-1.413s1.027-.387 1.413 0l8.693 8.693c.64.64 1.68.64 2.32 0l8.693-8.693c.387-.387 1.027-.387 1.413 0s.387 1.027 0 1.413l-8.693 8.693a3.634 3.634 0 0 1-2.573 1.067z"/></symbol><symbol id="icon-gas-station" viewBox="0 0 32 32"><path fill="#90a3bf" style="fill:var(--color1,#90a3bf)" d="m29.787 12.44-2.667-1.333c-.493-.24-1.107-.053-1.347.44a.994.994 0 0 0 .44 1.347l2.12 1.053v6.387l-5 .013V6.667c0-2.667-1.787-4-4-4H8.666c-2.213 0-4 1.333-4 4v21.667h-2c-.547 0-1 .453-1 1s.453 1 1 1h22.667c.547 0 1-.453 1-1s-.453-1-1-1h-2v-5.987l6-.013c.56 0 1-.453 1-1v-8c0-.373-.213-.72-.547-.893zM8 9.187c0-1.853 1.133-2.52 2.52-2.52h6.973c1.373 0 2.507.667 2.507 2.52v1.64c0 1.84-1.133 2.507-2.52 2.507h-6.96c-1.387 0-2.52-.667-2.52-2.52V9.187zm.667 7.146h4c.547 0 1 .453 1 1s-.453 1-1 1h-4c-.547 0-1-.453-1-1s.453-1 1-1z"/></symbol><symbol id="icon-profile-2user" viewBox="0 0 32 32"><path fill="#90a3bf" style="fill:var(--color1,#90a3bf)" d="M12 2.667A6.339 6.339 0 0 0 5.667 9c0 3.427 2.68 6.2 6.173 6.32a1.1 1.1 0 0 1 .293 0h.094A6.318 6.318 0 0 0 18.334 9a6.339 6.339 0 0 0-6.333-6.333zM18.773 18.867c-3.72-2.48-9.787-2.48-13.533 0C3.547 20 2.613 21.534 2.613 23.174s.933 3.16 2.613 4.28c1.867 1.253 4.32 1.88 6.773 1.88s4.907-.627 6.773-1.88c1.68-1.133 2.613-2.653 2.613-4.307-.013-1.64-.933-3.16-2.613-4.28zM26.653 9.787c.213 2.587-1.627 4.853-4.173 5.16h-.067c-.08 0-.16 0-.227.027-1.293.067-2.48-.347-3.373-1.107 1.373-1.227 2.16-3.067 2-5.067a6.186 6.186 0 0 0-1.027-2.907 4.787 4.787 0 0 1 6.866 3.893z"/><path fill="#90a3bf" style="fill:var(--color1,#90a3bf)" d="M29.32 22.121c-.107 1.293-.933 2.413-2.32 3.173-1.333.733-3.013 1.08-4.68 1.04.96-.867 1.52-1.947 1.627-3.093.133-1.653-.653-3.24-2.227-4.507-.893-.707-1.933-1.267-3.067-1.68 2.947-.853 6.653-.28 8.933 1.56 1.227.987 1.853 2.227 1.733 3.507z"/></symbol><symbol id="icon-car" viewBox="0 0 32 32"><path fill="#90a3bf" style="fill:var(--color1,#90a3bf)" d="M16 2.667C8.64 2.667 2.667 8.64 2.667 16S8.64 29.333 16 29.333 29.333 23.36 29.333 16 23.373 2.667 16 2.667z"/><path fill="#fff" style="fill:var(--color4,#fff)" d="M16 5.333c5.891 0 10.667 4.776 10.667 10.667S21.891 26.667 16 26.667 5.333 21.891 5.333 16 10.109 5.333 16 5.333z"/><path fill="#90a3bf" style="fill:var(--color1,#90a3bf)" d="M16 8c-4.416 0-8 3.584-8 8s3.584 8 8 8 8-3.584 8-8-3.576-8-8-8z"/><path fill="#fff" style="fill:var(--color4,#fff)" d="M16 10.667a5.333 5.333 0 1 1 0 10.666 5.333 5.333 0 0 1 0-10.666z"/><path fill="#90a3bf" style="fill:var(--color1,#90a3bf)" d="M14.667 22.667h2.667V28h-2.667v-5.333zM22.667 14.667H28v2.667h-5.333v-2.667zM4 14.667h5.333v2.667H4v-2.667z"/></symbol><symbol id="icon-heart1" viewBox="0 0 32 32"><path stroke="#90a3bf" style="stroke:var(--color1,#90a3bf)" stroke-linejoin="round" stroke-linecap="round" d="M16.827 27.746c-.453.16-1.2.16-1.653 0-3.867-1.32-12.507-6.827-12.507-16.16 0-4.12 3.32-7.453 7.413-7.453A7.352 7.352 0 0 1 16 7.12a7.375 7.375 0 0 1 5.92-2.987c4.093 0 7.413 3.333 7.413 7.453 0 9.333-8.64 14.84-12.507 16.16z"/></symbol></defs></svg>