<svg aria-hidden="true" style="position: absolute; width: 0; height: 0; overflow: hidden;" version="1.1" xmlns="http://www.w3.org/2000/svg" xmlns:xlink="http://www.w3.org/1999/xlink">
<defs>
<symbol id="icon-heart" viewBox="0 0 32 32">
<path fill="#3d5278" style="fill: var(--color1, #3d5278)" d="M21.92 4.133c-2.413 0-4.573 1.173-5.92 2.973-1.347-1.8-3.507-2.973-5.92-2.973-4.093 0-7.413 3.333-7.413 7.453 0 1.587 0.253 3.053 0.693 4.413 2.107 6.667 8.6 10.653 11.813 11.747 0.453 0.16 1.2 0.16 1.653 0 3.213-1.093 9.707-5.080 11.813-11.747 0.44-1.36 0.693-2.827 0.693-4.413 0-4.12-3.32-7.453-7.413-7.453z"></path>
</symbol>
<symbol id="icon-notification" viewBox="0 0 32 32">
<path fill="#3d5278" style="fill: var(--color1, #3d5278)" d="M21.338 17.811l-0.727-1.207c-0.153-0.269-0.291-0.778-0.291-1.076v-1.84c0-1.709-1.004-3.185-2.451-3.876-0.378-0.669-1.076-1.084-1.876-1.084-0.793 0-1.505 0.429-1.884 1.105-1.418 0.705-2.4 2.167-2.4 3.855v1.84c0 0.298-0.138 0.807-0.291 1.069l-0.735 1.215c-0.291 0.487-0.356 1.025-0.175 1.52 0.175 0.487 0.589 0.865 1.127 1.047 1.411 0.48 2.895 0.713 4.378 0.713s2.967-0.233 4.378-0.705c0.509-0.167 0.902-0.553 1.091-1.055s0.138-1.055-0.145-1.52z"></path>
<path fill="#3d5278" style="fill: var(--color1, #3d5278)" d="M18.058 21.825c-0.305 0.844-1.113 1.447-2.058 1.447-0.575 0-1.142-0.233-1.542-0.647-0.233-0.218-0.407-0.509-0.509-0.807 0.095 0.015 0.189 0.022 0.291 0.036 0.167 0.022 0.342 0.044 0.516 0.058 0.415 0.036 0.836 0.058 1.258 0.058 0.415 0 0.829-0.022 1.236-0.058 0.153-0.015 0.305-0.022 0.451-0.044 0.116-0.015 0.233-0.029 0.356-0.044z"></path>
<path fill="none" opacity="0.8" stroke="#c3d4e9" style="stroke: var(--color2, #c3d4e9)" stroke-linejoin="miter" stroke-linecap="butt" stroke-miterlimit="4" stroke-width="0.7273" d="M16 0.364c8.636 0 15.636 7.001 15.636 15.636s-7.001 15.636-15.636 15.636c-8.636 0-15.636-7.001-15.636-15.636s7.001-15.636 15.636-15.636z"></path>
<path fill="#ff4423" style="fill: var(--color3, #ff4423)" d="M30.545 5.455c0 2.209-1.791 4-4 4s-4-1.791-4-4c0-2.209 1.791-4 4-4s4 1.791 4 4z"></path>
</symbol>
<symbol id="icon-setting" viewBox="0 0 32 32">
<path fill="#3d5278" style="fill: var(--color1, #3d5278)" d="M26.8 12.294c-2.413 0-3.4-1.707-2.2-3.8 0.693-1.213 0.28-2.76-0.933-3.453l-2.307-1.32c-1.053-0.627-2.413-0.253-3.040 0.8l-0.147 0.253c-1.2 2.093-3.173 2.093-4.387 0l-0.147-0.253c-0.6-1.053-1.96-1.427-3.013-0.8l-2.307 1.32c-1.213 0.693-1.627 2.253-0.933 3.467 1.213 2.080 0.227 3.787-2.187 3.787-1.387 0-2.533 1.133-2.533 2.533v2.347c0 1.387 1.133 2.533 2.533 2.533 2.413 0 3.4 1.707 2.187 3.8-0.693 1.213-0.28 2.76 0.933 3.453l2.307 1.32c1.053 0.627 2.413 0.253 3.040-0.8l0.147-0.253c1.2-2.093 3.173-2.093 4.387 0l0.147 0.253c0.627 1.053 1.987 1.427 3.040 0.8l2.307-1.32c1.213-0.693 1.627-2.253 0.933-3.453-1.213-2.093-0.227-3.8 2.187-3.8 1.387 0 2.533-1.133 2.533-2.533v-2.347c-0.013-1.387-1.147-2.533-2.547-2.533zM16 20.334c-2.387 0-4.333-1.947-4.333-4.333s1.947-4.333 4.333-4.333c2.387 0 4.333 1.947 4.333 4.333s-1.947 4.333-4.333 4.333z"></path>
</symbol>
<symbol id="icon-notification1" viewBox="0 0 32 32">
<path fill="#3d5278" style="fill: var(--color1, #3d5278)" d="M25.787 19.32l-1.333-2.213c-0.28-0.493-0.533-1.427-0.533-1.973v-3.373c0-3.133-1.84-5.84-4.493-7.107-0.693-1.227-1.973-1.987-3.44-1.987-1.453 0-2.76 0.787-3.453 2.027-2.6 1.293-4.4 3.973-4.4 7.067v3.373c0 0.547-0.253 1.48-0.533 1.96l-1.347 2.227c-0.533 0.893-0.653 1.88-0.32 2.787 0.32 0.893 1.080 1.587 2.067 1.92 2.587 0.88 5.307 1.307 8.027 1.307s5.44-0.427 8.027-1.293c0.933-0.307 1.653-1.013 2-1.933s0.253-1.933-0.267-2.787z"></path>
<path fill="#3d5278" style="fill: var(--color1, #3d5278)" d="M19.773 26.68c-0.56 1.547-2.040 2.653-3.773 2.653-1.053 0-2.093-0.427-2.827-1.187-0.427-0.4-0.747-0.933-0.933-1.48 0.173 0.027 0.347 0.040 0.533 0.067 0.307 0.040 0.627 0.080 0.947 0.107 0.76 0.067 1.533 0.107 2.307 0.107 0.76 0 1.52-0.040 2.267-0.107 0.28-0.027 0.56-0.040 0.827-0.080 0.213-0.027 0.427-0.053 0.653-0.080z"></path>
</symbol>
<symbol id="icon-search" viewBox="0 0 32 32">
<path fill="none" stroke="#3d5278" style="stroke: var(--color1, #3d5278)" stroke-linejoin="round" stroke-linecap="round" stroke-miterlimit="4" stroke-width="2" d="M15.333 28c6.996 0 12.667-5.671 12.667-12.667s-5.671-12.667-12.667-12.667c-6.996 0-12.667 5.671-12.667 12.667s5.671 12.667 12.667 12.667z"></path>
<path fill="none" stroke="#3d5278" style="stroke: var(--color1, #3d5278)" stroke-linejoin="round" stroke-linecap="round" stroke-miterlimit="4" stroke-width="2" d="M29.333 29.333l-2.667-2.667"></path>
</symbol>
<symbol id="icon-filter" viewBox="0 0 32 32">
<path fill="none" stroke="#3d5278" style="stroke: var(--color1, #3d5278)" stroke-linejoin="round" stroke-linecap="round" stroke-miterlimit="10" stroke-width="2" d="M29.333 8.667h-8"></path>
<path fill="none" stroke="#3d5278" style="stroke: var(--color1, #3d5278)" stroke-linejoin="round" stroke-linecap="round" stroke-miterlimit="10" stroke-width="2" d="M8 8.667h-5.333"></path>
<path fill="none" stroke="#3d5278" style="stroke: var(--color1, #3d5278)" stroke-linejoin="round" stroke-linecap="round" stroke-miterlimit="10" stroke-width="2" d="M13.333 13.333c2.577 0 4.667-2.089 4.667-4.667s-2.089-4.667-4.667-4.667c-2.577 0-4.667 2.089-4.667 4.667s2.089 4.667 4.667 4.667z"></path>
<path fill="none" stroke="#3d5278" style="stroke: var(--color1, #3d5278)" stroke-linejoin="round" stroke-linecap="round" stroke-miterlimit="10" stroke-width="2" d="M29.333 23.333h-5.333"></path>
<path fill="none" stroke="#3d5278" style="stroke: var(--color1, #3d5278)" stroke-linejoin="round" stroke-linecap="round" stroke-miterlimit="10" stroke-width="2" d="M10.667 23.333h-8"></path>
<path fill="none" stroke="#3d5278" style="stroke: var(--color1, #3d5278)" stroke-linejoin="round" stroke-linecap="round" stroke-miterlimit="10" stroke-width="2" d="M18.667 28c2.577 0 4.667-2.089 4.667-4.667s-2.089-4.667-4.667-4.667c-2.577 0-4.667 2.089-4.667 4.667s2.089 4.667 4.667 4.667z"></path>
</symbol>
<symbol id="icon-actions-star" viewBox="0 0 36 32">
<path fill="#fbad39" style="fill: var(--color1, #fbad39)" d="M16.333 1.317c0.115-0.365 0.344-0.684 0.652-0.91s0.682-0.348 1.064-0.348c0.383 0 0.756 0.122 1.064 0.348s0.537 0.545 0.652 0.91l3.1 9.533h10c0.396-0.015 0.787 0.1 1.112 0.328s0.566 0.556 0.687 0.934c0.121 0.378 0.115 0.785-0.017 1.159s-0.383 0.695-0.715 0.913l-8.117 5.883 3.1 9.55c0.123 0.364 0.126 0.757 0.009 1.123s-0.348 0.684-0.658 0.91c-0.311 0.225-0.686 0.345-1.069 0.342s-0.757-0.128-1.064-0.358l-8.133-5.95-8.117 5.9c-0.307 0.23-0.68 0.355-1.064 0.358s-0.759-0.117-1.069-0.342c-0.311-0.225-0.542-0.544-0.658-0.91s-0.114-0.759 0.009-1.123l3.1-9.55-8.117-5.883c-0.332-0.218-0.583-0.538-0.715-0.913s-0.138-0.781-0.017-1.159c0.121-0.378 0.362-0.706 0.687-0.934s0.715-0.343 1.112-0.328h10l3.183-9.483z"></path>
</symbol>
<symbol id="icon-empty-star" viewBox="0 0 36 32">
<path fill="none" stroke="#c3d4e9" style="stroke: var(--color1, #c3d4e9)" stroke-linejoin="round" stroke-linecap="round" stroke-miterlimit="4" stroke-width="2.6667" d="M16.296 2.949c0.102-0.325 0.305-0.608 0.58-0.809s0.606-0.31 0.946-0.31c0.34 0 0.672 0.108 0.946 0.31s0.477 0.485 0.58 0.809l2.756 8.474h8.889c0.352-0.013 0.7 0.089 0.988 0.292s0.503 0.494 0.611 0.83c0.108 0.336 0.102 0.698-0.015 1.030s-0.341 0.617-0.635 0.811l-7.215 5.23 2.756 8.489c0.109 0.323 0.112 0.673 0.008 0.998s-0.309 0.608-0.585 0.809c-0.276 0.2-0.609 0.307-0.951 0.304s-0.673-0.114-0.946-0.318l-7.23-5.289-7.215 5.244c-0.273 0.204-0.605 0.316-0.946 0.318s-0.674-0.104-0.951-0.304c-0.276-0.2-0.481-0.484-0.585-0.809s-0.101-0.675 0.008-0.998l2.756-8.489-7.215-5.23c-0.295-0.194-0.518-0.479-0.635-0.811s-0.123-0.694-0.015-1.030c0.107-0.336 0.322-0.627 0.611-0.83s0.636-0.305 0.988-0.292h8.889l2.83-8.43z"></path>
</symbol>
<symbol id="icon-arrow-down" viewBox="0 0 32 32">
<path fill="#90a3bf" style="fill: var(--color1, #90a3bf); stroke: var(--color1, #90a3bf)" stroke="#90a3bf" stroke-linejoin="miter" stroke-linecap="butt" stroke-miterlimit="4" stroke-width="1" d="M16.001 22.399c-0.933 0-1.867-0.36-2.573-1.067l-8.693-8.693c-0.387-0.387-0.387-1.027 0-1.413s1.027-0.387 1.413 0l8.693 8.693c0.64 0.64 1.68 0.64 2.32 0l8.693-8.693c0.387-0.387 1.027-0.387 1.413 0s0.387 1.027 0 1.413l-8.693 8.693c-0.707 0.707-1.64 1.067-2.573 1.067z"></path>
</symbol>
<symbol id="icon-gas-station" viewBox="0 0 32 32">
<path fill="#90a3bf" style="fill: var(--color1, #90a3bf)" d="M29.787 12.44l-2.667-1.333c-0.493-0.24-1.107-0.053-1.347 0.44-0.253 0.507-0.053 1.107 0.44 1.347l2.12 1.053v6.387l-5 0.013v-13.68c0-2.667-1.787-4-4-4h-10.667c-2.213 0-4 1.333-4 4v21.667h-2c-0.547 0-1 0.453-1 1s0.453 1 1 1h22.667c0.547 0 1-0.453 1-1s-0.453-1-1-1h-2v-5.987l6-0.013c0.56 0 1-0.453 1-1v-8c0-0.373-0.213-0.72-0.547-0.893zM8 9.187c0-1.853 1.133-2.52 2.52-2.52h6.973c1.373 0 2.507 0.667 2.507 2.52v1.64c0 1.84-1.133 2.507-2.52 2.507h-6.96c-1.387 0-2.52-0.667-2.52-2.52v-1.627zM8.667 16.333h4c0.547 0 1 0.453 1 1s-0.453 1-1 1h-4c-0.547 0-1-0.453-1-1s0.453-1 1-1z"></path>
</symbol>
<symbol id="icon-profile-2user" viewBox="0 0 32 32">
<path fill="#90a3bf" style="fill: var(--color1, #90a3bf)" d="M12 2.667c-3.493 0-6.333 2.84-6.333 6.333 0 3.427 2.68 6.2 6.173 6.32 0.107-0.013 0.213-0.013 0.293 0 0.027 0 0.040 0 0.067 0 0.013 0 0.013 0 0.027 0 3.413-0.12 6.093-2.893 6.107-6.32 0-3.493-2.84-6.333-6.333-6.333z"></path>
<path fill="#90a3bf" style="fill: var(--color1, #90a3bf)" d="M18.773 18.867c-3.72-2.48-9.787-2.48-13.533 0-1.693 1.133-2.627 2.667-2.627 4.307s0.933 3.16 2.613 4.28c1.867 1.253 4.32 1.88 6.773 1.88s4.907-0.627 6.773-1.88c1.68-1.133 2.613-2.653 2.613-4.307-0.013-1.64-0.933-3.16-2.613-4.28z"></path>
<path fill="#90a3bf" style="fill: var(--color1, #90a3bf)" d="M26.653 9.787c0.213 2.587-1.627 4.853-4.173 5.16-0.013 0-0.013 0-0.027 0h-0.040c-0.080 0-0.16 0-0.227 0.027-1.293 0.067-2.48-0.347-3.373-1.107 1.373-1.227 2.16-3.067 2-5.067-0.093-1.080-0.467-2.067-1.027-2.907 0.507-0.253 1.093-0.413 1.693-0.467 2.613-0.227 4.947 1.72 5.173 4.36z"></path>
<path fill="#90a3bf" style="fill: var(--color1, #90a3bf)" d="M29.32 22.121c-0.107 1.293-0.933 2.413-2.32 3.173-1.333 0.733-3.013 1.080-4.68 1.040 0.96-0.867 1.52-1.947 1.627-3.093 0.133-1.653-0.653-3.24-2.227-4.507-0.893-0.707-1.933-1.267-3.067-1.68 2.947-0.853 6.653-0.28 8.933 1.56 1.227 0.987 1.853 2.227 1.733 3.507z"></path>
</symbol>
<symbol id="icon-car" viewBox="0 0 32 32">
<path fill="#90a3bf" style="fill: var(--color1, #90a3bf)" d="M16 2.667c-7.36 0-13.333 5.973-13.333 13.333s5.973 13.333 13.333 13.333c7.36 0 13.333-5.973 13.333-13.333s-5.96-13.333-13.333-13.333z"></path>
<path fill="#fff" style="fill: var(--color4, #fff)" d="M16 5.333c5.891 0 10.667 4.776 10.667 10.667s-4.776 10.667-10.667 10.667c-5.891 0-10.667-4.776-10.667-10.667s4.776-10.667 10.667-10.667z"></path>
<path fill="#90a3bf" style="fill: var(--color1, #90a3bf)" d="M16 8c-4.416 0-8 3.584-8 8s3.584 8 8 8c4.416 0 8-3.584 8-8s-3.576-8-8-8z"></path>
<path fill="#fff" style="fill: var(--color4, #fff)" d="M16 10.667c2.946 0 5.333 2.388 5.333 5.333s-2.388 5.333-5.333 5.333c-2.946 0-5.333-2.388-5.333-5.333s2.388-5.333 5.333-5.333z"></path>
<path fill="#90a3bf" style="fill: var(--color1, #90a3bf)" d="M14.667 22.667h2.667v5.333h-2.667v-5.333z"></path>
<path fill="#90a3bf" style="fill: var(--color1, #90a3bf)" d="M22.667 14.667h5.333v2.667h-5.333v-2.667z"></path>
<path fill="#90a3bf" style="fill: var(--color1, #90a3bf)" d="M4 14.667h5.333v2.667h-5.333v-2.667z"></path>
</symbol>
<symbol id="icon-heart1" viewBox="0 0 32 32">
<path stroke="#90a3bf" style="stroke: var(--color1, #90a3bf)" stroke-linejoin="round" stroke-linecap="round" d="M16.827 27.746c-0.453 0.16-1.2 0.16-1.653 0-3.867-1.32-12.507-6.827-12.507-16.16 0-4.12 3.32-7.453 7.413-7.453 2.427 0 4.573 1.173 5.92 2.987 1.347-1.813 3.507-2.987 5.92-2.987 4.093 0 7.413 3.333 7.413 7.453 0 9.333-8.64 14.84-12.507 16.16z"></path>
</symbol>
</defs>
</svg>
